<svg version="1.1" id="Слой_1" xmlns="http://www.w3.org/2000/svg" xmlns:xlink="http://www.w3.org/1999/xlink" x="0px" y="0px"
	 viewBox="0 0 1267 927" style="enable-background:new 0 0 1267 927;" xml:space="preserve">
<style type="text/css">
	.st0{fill:url(#SVGID_1_);}
	.st1{fill:#D1D1D1;}
	.st2{fill:#FEFEFE;}
	.st3{opacity:0.1;enable-background:new    ;}
	.st4{fill:#B6B6B6;}
	.st5{fill:#7E7E7E;}
	.st6{fill:#FFFFFF;}
	.st7{fill:url(#SVGID_2_);}
	.st8{fill:#DEDEDE;}
	.st9{fill:#B8B8B8;}
	.st10{fill:#DFDFDF;}
	.st11{fill:#F40494;}
	.st12{fill:url(#SVGID_3_);}
	.st13{fill:#950B63;}
	.st14{fill:#191919;}
	.st15{fill:#323232;}
	.st16{fill:#EEEFEF;}
	.st17{fill:url(#SVGID_4_);}
	.st18{fill:url(#SVGID_5_);}
	.st19{fill:#D64883;}
	.st20{clip-path:url(#SVGID_7_);}
	.st21{fill:#A2A2A2;}
	.st22{fill:#EB242A;}
	.st23{clip-path:url(#SVGID_9_);}
	.st24{fill:#EC715D;}
	.st25{fill:#E65473;}
	.st26{fill:#E02D7B;}
	.st27{opacity:0.4;}
	.st28{opacity:0.3;}
	.st29{fill:url(#SVGID_10_);}
	.st30{fill:url(#SVGID_11_);}
	.st31{fill:url(#SVGID_12_);}
	.st32{clip-path:url(#SVGID_14_);}
	.st33{fill:url(#SVGID_15_);}
	.st34{fill:url(#SVGID_16_);}
	.st35{fill:url(#SVGID_17_);}
	.st36{fill:url(#SVGID_18_);}
	.st37{opacity:0.4;fill:#E85B6B;enable-background:new    ;}
	.st38{fill:#BCBCBC;}
	.st39{fill:url(#SVGID_19_);stroke:url(#SVGID_20_);stroke-width:3.3977;stroke-miterlimit:10;}
	.st40{fill:url(#SVGID_21_);stroke:url(#SVGID_22_);stroke-width:3.3977;stroke-miterlimit:10;}
	.st41{fill:url(#SVGID_23_);}
	.st42{fill:url(#SVGID_24_);}
</style>
<linearGradient id="SVGID_1_" gradientUnits="userSpaceOnUse" x1="467.8908" y1="299.1822" x2="175.8908" y2="491.1822" gradientTransform="matrix(1 0 0 -1 0 925.89)">
	<stop  offset="0" style="stop-color:#FEFEFE"/>
	<stop  offset="1" style="stop-color:#FEFEFE;stop-opacity:0"/>
</linearGradient>
<path class="st0" d="M903.5,927h122l-777-446.2l-55.1,31.7L903.5,927z"/>
<path class="st1" d="M213.7,200.7c-42.4,13-64.4-15.6-96-6c-11.2,3.4-99.8,23-106.9-19.3c-1.3,4.5-1.8,8.8-1.2,12.6
	c6.3,43.2,95.8,23.2,107.1,19.8c31.6-9.5,53.6,19,96,6c22.2-6.8,27.9-20,25.5-32C235.2,189.5,227.9,196.4,213.7,200.7z"/>
<path class="st2" d="M216.8,158.7c-20.5-7,2.7-44.1-45-54.4s-58.2,59.5-96.5,41.5c-31.7-14.9-58.3,9.3-64.6,30.9
	c7.1,42.2,95.5,22.6,106.7,19.2c31.5-9.5,53.6,18.9,95.9,6c14.1-4.3,21.5-11.2,24.4-18.7C235.5,172.1,226.6,162.1,216.8,158.7z"/>
<path class="st2" d="M1112.8,666.2L831.4,828.6l47.7,27.5l281.4-162.4L1112.8,666.2z"/>
<path class="st3" d="M778.2,425.3l-158.5-91.5l158.5-91.5l158.5,91.5L778.2,425.3z"/>
<path class="st4" d="M883.5,337.9l-107.8,62.2V298.7l107.8-62.2V337.9z"/>
<path class="st1" d="M775.7,400.1l-107.8-62.2V236.5l107.8,62.2V400.1z"/>
<path class="st2" d="M775.7,298.7l-107.8-62.2l107.8-62.3l107.8,62.3L775.7,298.7z"/>
<path class="st4" d="M859.7,236l-84,48.5V1.3l84-48.5V236z"/>
<path class="st1" d="M775.7,284.5l-84-48.5V-47.2l84,48.5V284.5z"/>
<path class="st2" d="M775.7,1.3l-84-48.5l84-48.5l84,48.5L775.7,1.3z"/>
<path class="st5" d="M775.7,364.3l-107.8-62.2v2.7L775.7,367l107.8-62.2v-2.7L775.7,364.3z"/>
<path class="st5" d="M775.7,331.9l-107.8-62.3v2.7l107.8,62.3l107.8-62.3v-2.7L775.7,331.9z"/>
<path class="st6" d="M706.9,9.6l-4.8-2.8v-22l4.8,2.8V9.6z"/>
<path class="st6" d="M720.4,17.4l-4.8-2.8v-22l4.8,2.8V17.4z"/>
<path class="st6" d="M734,25.2l-4.8-2.8v-22l4.8,2.8V25.2z"/>
<path class="st6" d="M747.4,33l-4.8-2.8v-22l4.8,2.8V33z"/>
<path class="st6" d="M760.9,40.7l-4.8-2.8V16l4.8,2.8V40.7z"/>
<path class="st6" d="M706.9,61l-4.8-2.8v-22l4.8,2.8V61z"/>
<path class="st6" d="M720.4,68.7l-4.8-2.8V44l4.8,2.8V68.7z"/>
<path class="st6" d="M734,76.6l-4.8-2.8v-22l4.8,2.8V76.6z"/>
<path class="st6" d="M747.4,84.3l-4.8-2.8v-22l4.8,2.8V84.3z"/>
<path class="st6" d="M760.9,92.1l-4.8-2.8v-22l4.8,2.8V92.1z"/>
<path class="st6" d="M706.9,112.3l-4.8-2.8v-22l4.8,2.8V112.3z"/>
<path class="st6" d="M720.4,120.2l-4.8-2.8v-22l4.8,2.8V120.2z"/>
<path class="st6" d="M734,127.9l-4.8-2.8v-22l4.8,2.8V127.9z"/>
<path class="st6" d="M747.4,135.7l-4.8-2.8v-22l4.8,2.8V135.7z"/>
<path class="st6" d="M760.9,143.5l-4.8-2.7v-22.1l4.8,2.8V143.5z"/>
<path class="st6" d="M706.9,163.7l-4.8-2.8v-22l4.8,2.8V163.7z"/>
<path class="st6" d="M720.4,171.5l-4.8-2.8v-22l4.8,2.8V171.5z"/>
<path class="st6" d="M734,179.3l-4.8-2.8v-22l4.8,2.8V179.3z"/>
<path class="st6" d="M747.4,187l-4.8-2.7v-22.1l4.8,2.8V187z"/>
<path class="st6" d="M760.9,194.9l-4.8-2.8v-22l4.8,2.8V194.9z"/>
<path class="st6" d="M706.9,215.1l-4.8-2.8v-22l4.8,2.8V215.1z"/>
<path class="st6" d="M720.4,222.9l-4.8-2.8v-22l4.8,2.8V222.9z"/>
<path class="st6" d="M734,230.6l-4.8-2.7v-22.1l4.8,2.8V230.6z"/>
<path class="st6" d="M747.4,238.5l-4.8-2.8v-22l4.8,2.8V238.5z"/>
<path class="st6" d="M760.9,246.3l-4.8-2.8v-22l4.8,2.8V246.3z"/>
<path class="st6" d="M844.9,9.6l4.7-2.8v-22l-4.7,2.8V9.6z"/>
<path class="st6" d="M831.3,17.4l4.8-2.8v-22l-4.8,2.8V17.4z"/>
<path class="st6" d="M817.8,25.2l4.8-2.8v-22l-4.8,2.8V25.2z"/>
<path class="st6" d="M804.4,33l4.8-2.8v-22l-4.8,2.8V33z"/>
<path class="st6" d="M790.9,40.7l4.8-2.8V16l-4.8,2.8V40.7z"/>
<path class="st6" d="M844.9,61l4.7-2.8v-22l-4.7,2.8V61z"/>
<path class="st6" d="M831.3,68.7l4.8-2.8V44l-4.8,2.8V68.7z"/>
<path class="st6" d="M817.8,76.6l4.8-2.8v-22l-4.8,2.8V76.6z"/>
<path class="st6" d="M804.4,84.3l4.8-2.8v-22l-4.8,2.8V84.3z"/>
<path class="st6" d="M790.9,92.1l4.8-2.8v-22l-4.8,2.8V92.1z"/>
<path class="st6" d="M844.9,112.3l4.7-2.8v-22l-4.7,2.8V112.3z"/>
<path class="st6" d="M831.3,120.1l4.8-2.8v-22l-4.8,2.8V120.1z"/>
<path class="st6" d="M817.8,127.9l4.8-2.8v-22l-4.8,2.8V127.9z"/>
<path class="st6" d="M804.4,135.7l4.8-2.8v-22l-4.8,2.8V135.7z"/>
<path class="st6" d="M790.9,143.5l4.8-2.7v-22.1l-4.8,2.8V143.5z"/>
<path class="st6" d="M844.9,163.7l4.7-2.8v-22l-4.7,2.8V163.7z"/>
<path class="st6" d="M831.3,171.5l4.8-2.8v-22l-4.8,2.8V171.5z"/>
<path class="st6" d="M817.8,179.3l4.8-2.8v-22l-4.8,2.8V179.3z"/>
<path class="st6" d="M804.4,187l4.8-2.7v-22.1l-4.8,2.8V187z"/>
<path class="st6" d="M790.9,194.9l4.8-2.8v-22l-4.8,2.8V194.9z"/>
<path class="st6" d="M844.9,215.1l4.7-2.8v-22l-4.7,2.8V215.1z"/>
<path class="st6" d="M831.3,222.9l4.8-2.8v-22l-4.8,2.8V222.9z"/>
<path class="st6" d="M817.8,230.6l4.8-2.7v-22.1l-4.8,2.8V230.6z"/>
<path class="st6" d="M804.4,238.5l4.8-2.8v-22l-4.8,2.8V238.5z"/>
<path class="st6" d="M790.9,246.3l4.8-2.8v-22l-4.8,2.8V246.3z"/>
<path class="st3" d="M614.4,493.7l103.1-59.6l-133.8-77.2l-103.1,59.5L614.4,493.7z"/>
<path class="st2" d="M613.5,213.1l72.4-41.9l-94-54.2l-72.4,41.8L613.5,213.1z"/>
<linearGradient id="SVGID_2_" gradientUnits="userSpaceOnUse" x1="674.828" y1="777.1695" x2="531.362" y2="777.1695" gradientTransform="matrix(1 0 0 -1 0 925.89)">
	<stop  offset="0" style="stop-color:#021290"/>
	<stop  offset="1" style="stop-color:#190158"/>
</linearGradient>
<path class="st7" d="M592.6,127.7l77.6,44.8l2.5-1.4l-80.1-46.2l-59,33.7l2.5,1.4L592.6,127.7z"/>
<path class="st5" d="M592.6,127.7l77.6,44.8l2.5-1.4l-80.1-46.2l-59,33.7l2.5,1.4L592.6,127.7z"/>
<path class="st1" d="M536.1,160l56.5-32.3l77.6,44.8L613.9,205L536.1,160z"/>
<path class="st8" d="M613.5,473.1l-94-54.3V158.8l94,54.3V473.1z"/>
<path class="st9" d="M685.9,431.2l-72.4,41.9V213.1l72.4-41.9V431.2z"/>
<path class="st5" d="M530.1,186.8l1.7,1v36.5l-1.7-0.9V186.8z"/>
<path class="st6" d="M547.4,196.8v36.5l-15.6-9v-36.5L547.4,196.8z"/>
<path class="st9" d="M575.6,240.1l-13,7.6v-18l13-7.6V240.1z"/>
<path class="st5" d="M519.5,207.6l-13,7.5l-0.1-18l13-7.5L519.5,207.6z"/>
<path class="st1" d="M562.6,247.7l-58-33.4v-18l58,33.4V247.7z"/>
<path class="st6" d="M562.6,227.6l-54.4-31.4l11.2-6.6v-2l-13.5,7.8l-1.3,0.7l58,33.4l1.7-1l11.3-6.6l-1.8-1L562.6,227.6z"/>
<path class="st5" d="M530.1,242.3l1.7,1v36.5l-1.7-0.9V242.3z"/>
<path class="st6" d="M547.4,252.2v36.5l-15.6-9v-36.5L547.4,252.2z"/>
<path class="st9" d="M575.6,295.5l-13,7.6v-18l13-7.6V295.5z"/>
<path class="st5" d="M519.5,263l-13,7.5l-0.1-17.9l13-7.6L519.5,263z"/>
<path class="st1" d="M562.6,303.1l-58-33.4v-18l58,33.5V303.1z"/>
<path class="st6" d="M562.6,283l-54.4-31.4l11.2-6.6v-2l-13.5,7.8l-1.3,0.7l58,33.5l1.7-1l11.3-6.6l-1.8-1L562.6,283z"/>
<path class="st5" d="M530.1,297.7l1.7,1v36.5l-1.7-0.9V297.7z"/>
<path class="st6" d="M547.4,307.7v36.6l-15.6-9.1v-36.5L547.4,307.7z"/>
<path class="st9" d="M575.6,350.9l-13,7.6v-18l13-7.6V350.9z"/>
<path class="st5" d="M519.5,318.5l-13,7.5l-0.1-17.9l13-7.6L519.5,318.5z"/>
<path class="st1" d="M562.6,358.5l-58-33.4v-18l58,33.5V358.5z"/>
<path class="st6" d="M562.6,338.4l-54.4-31.4l11.2-6.6v-2l-13.5,7.8l-1.3,0.7l58,33.5l1.7-1l11.3-6.5l-1.8-1L562.6,338.4z"/>
<path class="st5" d="M530.1,353.1l1.7,1v36.5l-1.7-0.9V353.1z"/>
<path class="st6" d="M547.4,363.1v36.6l-15.6-9.1v-36.5L547.4,363.1z"/>
<path class="st9" d="M575.6,406.4l-13,7.5v-18l13-7.5V406.4z"/>
<path class="st5" d="M519.5,373.9l-13,7.5l-0.1-17.9l13-7.6L519.5,373.9z"/>
<path class="st1" d="M562.6,414l-58-33.4v-18l58,33.5V414z"/>
<path class="st6" d="M562.6,393.9l-54.4-31.4l11.3-6.6v-2l-13.5,7.8l-1.3,0.7l58,33.5l1.7-1l11.3-6.5l-1.8-1L562.6,393.9z"/>
<path class="st5" d="M636.3,215.5l-1.1,0.7v24.4l1.1-0.7V215.5z"/>
<path class="st6" d="M624.7,222.2v24.4l10.4-6v-24.4L624.7,222.2z"/>
<path class="st5" d="M656,204.2l-1.1,0.7v24.4l1.1-0.7V204.2z"/>
<path class="st6" d="M644.4,210.9v24.4l10.4-6v-24.4L644.4,210.9z"/>
<path class="st5" d="M675.6,192.9l-1.1,0.6V218l1.1-0.7V192.9z"/>
<path class="st6" d="M664.1,199.5V224l10.4-6v-24.5L664.1,199.5z"/>
<path class="st5" d="M636.3,270.9l-1.1,0.6V296l1.1-0.7V270.9z"/>
<path class="st6" d="M624.7,277.6v24.5l10.4-6v-24.5L624.7,277.6z"/>
<path class="st5" d="M656,259.6l-1.1,0.6v24.5l1.1-0.7V259.6z"/>
<path class="st6" d="M644.4,266.2v24.4l10.4-6v-24.5L644.4,266.2z"/>
<path class="st5" d="M675.6,248.2l-1.1,0.7v24.4l1.1-0.6V248.2z"/>
<path class="st6" d="M664.1,254.9v24.4l10.4-6v-24.4L664.1,254.9z"/>
<path class="st5" d="M636.3,326.3l-1.1,0.7v24.4l1.1-0.6V326.3z"/>
<path class="st6" d="M624.7,333v24.4l10.4-6V327L624.7,333z"/>
<path class="st5" d="M656,315l-1.1,0.7v24.4l1.1-0.6V315z"/>
<path class="st6" d="M644.4,321.7v24.4l10.4-6v-24.4L644.4,321.7z"/>
<path class="st5" d="M675.6,303.6l-1.1,0.7v24.4l1.1-0.7V303.6z"/>
<path class="st6" d="M664.1,310.3v24.4l10.4-6v-24.4L664.1,310.3z"/>
<path class="st5" d="M636.3,381.7l-1.1,0.7v24.4l1.1-0.7V381.7z"/>
<path class="st6" d="M624.7,388.4v24.4l10.4-6v-24.4L624.7,388.4z"/>
<path class="st5" d="M656,370.4l-1.1,0.6v24.5l1.1-0.7V370.4z"/>
<path class="st6" d="M644.4,377v24.5l10.4-6V371L644.4,377z"/>
<path class="st5" d="M675.6,359.1l-1.1,0.6v24.5l1.1-0.7V359.1z"/>
<path class="st6" d="M664.1,365.7v24.5l10.4-6v-24.5L664.1,365.7z"/>
<path class="st3" d="M925,503.3l-99.5-57.5c-6.5-3.7-5.7-10.3,1.8-14.6l95.9-55.4c7.5-4.3,18.8-4.8,25.3-1l99.5,57.4
	c6.5,3.7,5.7,10.3-1.8,14.6l-95.9,55.4C942.8,506.6,931.5,507,925,503.3z"/>
<path class="st2" d="M928.6,143.8l-68.4-39.5c-4.5-2.6-3.9-7.1,1.3-10.1l65.9-38c5.1-3,13-3.3,17.4-0.7l68.4,39.5
	c4.5,2.6,3.9,7.1-1.3,10.1l-65.9,38C940.9,146.1,933.1,146.4,928.6,143.8z"/>
<path class="st5" d="M879.8,100.7l49.9-28.8c3.9-2.2,9.8-2.5,13.2-0.5l51.8,29.9c0.4,0.3,0.8,0.5,1.1,0.9c1.8-2,1.5-4.4-1.1-6
	l-51.8-29.9c-3.4-1.9-9.3-1.7-13.2,0.5l-49.9,28.8c-3.4,1.9-4.2,4.8-2.1,6.8C878.2,101.7,878.9,101.2,879.8,100.7z"/>
<path class="st1" d="M878.8,103.2l51.8,29.9c3.4,1.9,9.3,1.7,13.2-0.5l49.9-28.8c0.9-0.5,1.6-1.1,2.1-1.7c-0.3-0.3-0.7-0.6-1.1-0.9
	l-51.8-29.9c-3.4-1.9-9.3-1.7-13.2,0.5l-49.9,28.8c-0.9,0.5-1.6,1.1-2.1,1.7C878,102.6,878.3,102.9,878.8,103.2z"/>
<path class="st9" d="M1016.2,99.7c-0.1,1.9-1.6,3.8-4.3,5.4l-65.9,38c-2.7,1.6-6,2.4-9.3,2.5h-0.1v245.3v91.9
	c3.3-0.1,6.7-0.9,9.4-2.5l66.1-38.1c2.2-1.3,3.6-2.8,4-4.5v-2.5V99.7z"/>
<path class="st1" d="M860.3,104.4c-2.2-1.3-3.1-2.9-3-4.6h-0.1v336.1v2.5c0.4,1.2,1.3,2.2,2.8,3.1l68.5,39.6
	c2.2,1.3,5.1,1.8,8.1,1.7v-91.9V145.6h-0.1c-3,0.1-5.9-0.4-8-1.7L860.3,104.4z"/>
<path class="st5" d="M946.1,192.5c-5.8,3.4-12.1,3.6-17.4,0.7L857.3,152v1.9l71.4,41.2c4.5,2.6,12.2,2.2,17.4-0.7l70.1-40.5V152
	L946.1,192.5z"/>
<path class="st5" d="M946.1,243.1c-5.8,3.4-12.1,3.6-17.4,0.7l-71.4-41.2v1.9l71.4,41.2c4.5,2.6,12.2,2.2,17.4-0.7l70.1-40.5v-1.9
	L946.1,243.1z"/>
<path class="st5" d="M946.1,293.8c-5.8,3.4-12.1,3.6-17.4,0.7l-71.4-41.2v1.9l71.4,41.2c4.5,2.6,12.2,2.2,17.4-0.7l70.1-40.5v-1.9
	L946.1,293.8z"/>
<path class="st5" d="M946.1,344.5c-5.8,3.4-12.1,3.6-17.4,0.7L857.3,304v1.9l71.4,41.2c4.5,2.6,12.2,2.2,17.4-0.7l70.1-40.5V304
	L946.1,344.5z"/>
<path class="st5" d="M946.1,395.1c-5.8,3.4-12.1,3.6-17.4,0.7l-71.4-41.2v1.9l71.4,41.2c4.5,2.6,12.2,2.2,17.4-0.7l70.1-40.5v-1.9
	L946.1,395.1z"/>
<path class="st3" d="M1427.8,692.2l-258.1-128.8l-89-80.5L880.9,599.1l112.5,66.2l81.9-47.3L1317.8,758L1427.8,692.2z"/>
<path class="st9" d="M1075.6,599.4l-79.4,45.8v-91.6l79.4-45.8V599.4z"/>
<path class="st1" d="M996.2,645.2l-79.3-45.8v-91.6l79.3,45.8V645.2z"/>
<path class="st1" d="M1313.8,736.9l-238.2-137.5v-91.6l238.2,137.4V736.9z"/>
<path class="st2" d="M1313.8,645.2l-238.2-137.5l79.4-45.9l238.1,137.5L1313.8,645.2z"/>
<path class="st2" d="M996.2,553.6l-79.3-45.8l158.8-91.7l79.4,45.8L996.2,553.6z"/>
<path class="st2" d="M1313.6,665.3l-221.3-127.8v11.9l221.3,127.8V665.3z"/>
<path class="st5" d="M1095.1,551.1v-11.9l-2.8-1.6v11.9v3.4l221.3,127.8v-3.4L1095.1,551.1z"/>
<path class="st2" d="M1313.6,699.5l-221.3-127.8v11.9l221.3,127.8V699.5z"/>
<path class="st5" d="M1095.1,585.2v-11.9l-2.8-1.6v11.9v3.4l221.3,127.8v-3.4L1095.1,585.2z"/>
<path class="st2" d="M1052.5,612.7l-31.8,18.3v-67.3l31.8-18.3V612.7z"/>
<path class="st5" d="M1047.4,548.3v67.3l5.1-2.9v-67.3L1047.4,548.3z"/>
<path class="st5" d="M929,542v35.8l4,2.3v-35.8L929,542z"/>
<path class="st2" d="M982,572.6L933,544.3v35.8l48.9,28.2V572.6z"/>
<path class="st1" d="M996.2,483.1L963.6,502l32.6,18.8l32.7-18.8L996.2,483.1z"/>
<path class="st9" d="M1028.9,502v4.1L996.2,525v-4.1L1028.9,502z"/>
<path class="st10" d="M963.6,502v4.1l32.6,18.8v-4.1L963.6,502z"/>
<path class="st1" d="M1157,476.3l-54.7,31.5l210.2,121.4l53.8-32L1157,476.3z"/>
<path class="st5" d="M1361.3,599.1l5.1-2L1157,476.3l-54.7,31.5l4.3,2.5l50.4-29.1L1361.3,599.1z"/>
<path class="st11" d="M992.3,759.3c-6.2-3.6-16.2-3.6-22.3,0c-5.6,3.3-6,8.3-1.4,11.8l-128,72.4L512.6,648l-2.3,4l329.3,196.1
	l1.1,0.7l133.1-75.3c6,1.9,13.5,1.5,18.5-1.4C998.4,768.6,998.4,762.8,992.3,759.3z"/>
<path class="st3" d="M769.9,770.2c0,0,0.9,42.3-62.6,52.7c-63.5,10.4-203.7-80-216.3-87.5c-12.6-7.5-24.8-37.3-23.3-55.8
	c1.6-18.5,28-4.2,28-4.2L769.9,770.2z"/>
<linearGradient id="SVGID_3_" gradientUnits="userSpaceOnUse" x1="650.7743" y1="180.1024" x2="842.5013" y2="109.9204" gradientTransform="matrix(1 0 0 -1 0 925.89)">
	<stop  offset="0" style="stop-color:#E02D7B"/>
	<stop  offset="0.3191" style="stop-color:#E6506F"/>
	<stop  offset="0.7709" style="stop-color:#EE7C5F"/>
	<stop  offset="1" style="stop-color:#F18D59"/>
</linearGradient>
<path class="st12" d="M693.7,785.7l5.4,20.2c0.2,1.9-0.1,3.6,3.8,3c8.4-1.3,30.5-5.6,46.6-16.9c7.4-5.2,12.1-9,15-11.7
	c3.4-3.1,5.3-7.4,5.3-12v-23.8l-64.2,23.8c-1,0.4-1.9,1.2-2.3,2.2l-7.7,11.4C695.4,782.5,693.6,785,693.7,785.7z"/>
<path class="st13" d="M610.4,766.7l39.7-11l-41-20.5l-0.7,26.7L610.4,766.7z"/>
<path class="st14" d="M654.5,781.5c0-11.9-8.3-26.4-18.7-32.4c-5.2-3-9.9-3.3-13.3-1.3l-4.3,2.5l1.4,0.2c-1.6,2.2-2.5,5.4-2.5,9.3
	c0,11.9,8.3,26.4,18.7,32.4c3.2,1.9,6.2,2.6,8.8,2.5l-0.9,1.9l5.2-3c0.1,0,0.1-0.1,0.2-0.1l0.2-0.1
	C652.6,791.3,654.5,787.2,654.5,781.5z"/>
<path class="st15" d="M649.5,784.5c0,11.9-8.3,16.8-18.7,10.8c-10.4-6-18.7-20.5-18.7-32.4c0-11.9,8.3-16.8,18.7-10.8
	C641.1,758,649.5,772.5,649.5,784.5z"/>
<path class="st16" d="M642,780.1c0,7.2-5,10.1-11.2,6.5c-6.2-3.6-11.2-12.3-11.2-19.4c0-7.2,5-10.1,11.2-6.5
	C637,764.3,642,773,642,780.1z"/>
<path class="st15" d="M633.4,775.1c0,1.6-1.2,2.3-2.6,1.5c-1.4-0.8-2.6-2.8-2.6-4.5c0-1.6,1.1-2.3,2.6-1.5
	C632.3,771.5,633.4,773.5,633.4,775.1z"/>
<path class="st13" d="M484.8,694.7l3.7,0.1l12.6-13.5l-13.2-1.9l-4.2,13.5L484.8,694.7z"/>
<path class="st14" d="M528.5,716.3c0-11.9-8.3-26.4-18.7-32.4c-5.2-3-9.9-3.3-13.3-1.3l-4.3,2.5l1.4,0.2c-1.6,2.2-2.5,5.4-2.5,9.3
	c0,11.9,8.3,26.4,18.7,32.4c3.2,1.9,6.2,2.6,8.8,2.5l-0.9,1.9l5.2-3.1c0.1,0,0.1-0.1,0.2-0.1l0.2-0.1
	C526.5,726.1,528.5,722,528.5,716.3z"/>
<path class="st15" d="M523.4,719.2c0,11.9-8.3,16.8-18.7,10.8c-10.4-6-18.7-20.5-18.7-32.4c0-11.9,8.3-16.8,18.7-10.8
	C515.1,692.7,523.4,707.3,523.4,719.2z"/>
<path class="st16" d="M516,714.9c0,7.2-5,10.1-11.2,6.5c-6.2-3.6-11.2-12.3-11.2-19.4c0-7.2,5-10.1,11.2-6.5
	C511,699,516,707.7,516,714.9z"/>
<path class="st15" d="M507.3,709.9c0,1.6-1.1,2.3-2.6,1.5c-1.4-0.8-2.6-2.8-2.6-4.5c0-1.6,1.2-2.3,2.6-1.5
	C506.2,706.2,507.3,708.2,507.3,709.9z"/>
<linearGradient id="SVGID_4_" gradientUnits="userSpaceOnUse" x1="481.3312" y1="305.6734" x2="864.9323" y2="138.5334" gradientTransform="matrix(1 0 0 -1 0 925.89)">
	<stop  offset="0" style="stop-color:#E02D7B"/>
	<stop  offset="0.3191" style="stop-color:#E6506F"/>
	<stop  offset="0.7709" style="stop-color:#EE7C5F"/>
	<stop  offset="1" style="stop-color:#F18D59"/>
</linearGradient>
<path class="st17" d="M473.1,646.5l69.3-43.9c3.1-1.9,6.4-2.8,9.8-1.6l17.2,6c0,0,39.3-3.9,70.9,12s51,41.2,55.4,45.9
	c4.5,4.7,22.9,25.9,22.9,25.9s49.4,36,51.3,53.4c0,0.2,0,0.4-0.1,0.5c-2.6,2.5-30.6,29.2-70,39.7c-1.9,0.5-3.8,0.2-5.4-0.7
	l-61.8-36.2l-161.4-86.9L473.1,646.5z"/>
<linearGradient id="SVGID_5_" gradientUnits="userSpaceOnUse" x1="411.4042" y1="246.4178" x2="1050.7423" y2="84.7579" gradientTransform="matrix(1 0 0 -1 0 925.89)">
	<stop  offset="0" style="stop-color:#E02D7B"/>
	<stop  offset="0.3191" style="stop-color:#E6506F"/>
	<stop  offset="0.7709" style="stop-color:#EE7C5F"/>
	<stop  offset="1" style="stop-color:#F18D59"/>
</linearGradient>
<path class="st18" d="M687.8,771.7c-16.8-16.5-48.5-37.6-62.6-59.4c-14.1-21.8-38.5-45.4-68.5-54.4c-26.7-8-51.6-3.9-53.3-3.6
	c-0.1,0-0.1,0-0.2,0l-27.3-9.2c-2.3-0.7-4.6,0.9-4.6,3.4v14c0,0.1,0,0.2-0.1,0.3c-0.7,0.7-4.6,4.7-3.8,13.2
	c0.9,9.4,6.3,12.3,6.3,12.3l11.3,6.5c0-0.4,0.1-0.5,0.1-0.9c0.9-9.8,11.8-14.9,22.1-8.9c10.4,6,18.7,20.5,18.7,32.4
	c0,0.3,0,0.6-0.1,0.9l74.9,43l9,5.1c0.3,0.1,0.7-0.1,0.7-0.4c-0.4-3.9-1-18.9,12.2-19.3c15.6-0.4,28.1,21,29.5,33.8
	c0.4,4.2-0.1,7.5-0.4,9.8c0,0.1,0.1,0.3,0.2,0.4l21.9,12.6c0.2,0.1,10.3,4.9,24.4,6c0.8,0.1,1.6-0.5,1.8-1.4
	C700.5,802.7,701.8,785.6,687.8,771.7z"/>
<path class="st16" d="M504.9,661.9L635,738.1c0,0-18.4-39.9-45.7-58.7c-25.6-17.7-40.3-21.2-58-22.3
	C517.2,656,504.9,661.9,504.9,661.9z"/>
<path class="st16" d="M615.5,687.2l33.3,40.8c1.2,1.5,3.1,2.1,4.9,1.5c8.6-2.8,33.9-12.2,56.3-34c1.2-1.2,1.3-3.1,0.1-4.4
	l-35.1-40.5c-1.1-1.3-3.1-1.3-4.2-0.1c-5.4,5.6-21.9,20.3-54.2,32.7C615,683.7,614.4,685.8,615.5,687.2z"/>
<path class="st16" d="M538.7,647.6c-2.9-0.4-10.6-1.6-17.4-1.6c-0.9,0-1.2-1.1-0.4-1.6l50.7-31.7c0.4-0.2,0.8-0.4,1.3-0.4
	c2.5-0.2,10.9-0.9,16.6-0.1c0.8,0.1,1,1.2,0.4,1.6l-48.9,33.4C540.2,647.5,539.4,647.7,538.7,647.6z"/>
<path class="st19" d="M471.1,662.1v-8.4c0,0,10.7,3.3,10.7,9.3C482,669.1,471.1,662.1,471.1,662.1z"/>
<path class="st16" d="M769.9,752.4v13c0,0-4.4,5.5-9.2,4.7c-4.8-0.9-2.5-8.9,0-10.4C763.2,758.2,769.9,752.4,769.9,752.4z"/>
<path class="st16" d="M698.8,791c0,0,11.8-5.3,14.2-2.3c2.9,3.7,2.2,9.4-3.5,11.4c-5.7,2-8.1,3.1-10.4,2.8c-2.2-0.3-4.8-0.4-6.4-1.4
	c-2.7-1.6-3.2-8,0-10.1C694.1,790.6,698.8,791,698.8,791z"/>
<path class="st2" d="M758.8,572.1L656.9,514l101.2-59.2l101.9,58L758.8,572.1z"/>
<g>
	<defs>
		<rect id="SVGID_6_" x="703.8" y="242" width="164.6" height="351.2"/>
	</defs>
	<clipPath id="SVGID_7_">
		<use xlink:href="#SVGID_6_"  style="overflow:visible;"/>
	</clipPath>
	<g class="st20">
		<path class="st3" d="M835.5,593.2L809.3,578l22.6-13.1l26.1,15.2L835.5,593.2z"/>
		<path class="st3" d="M731.6,534.1l-26.2-15.1l22.6-13.1l26.1,15.2L731.6,534.1z"/>
		<path class="st9" d="M821,531.5v47.8l14.4,8.3v-47.8L821,531.5z"/>
		<path class="st21" d="M846.5,581.2l-11,6.4v-47.8l11-6.4V581.2z"/>
		<path class="st9" d="M717.2,471.5v47.8l14.4,8.3v-47.8L717.2,471.5z"/>
		<path class="st21" d="M742.6,521.2l-11,6.4v-47.8l11-6.4V521.2z"/>
		<path class="st1" d="M850.2,564.2l-146.4-84.7v-227l146.4,84.7V564.2z"/>
		<path class="st22" d="M835.3,544.1l-119.9-69.4l0-201.7l119.9,69.4L835.3,544.1z"/>
		<path class="st5" d="M719.3,275.2l-4-2.3v201.7l119.9,69.4v-4.4l-115.9-67.1V275.2z"/>
		<path class="st9" d="M868.4,553.8l-18.2,10.5v-227l18.2-10.5V553.8z"/>
		<path class="st2" d="M722,242l-18.2,10.5l146.4,84.7l18.2-10.5L722,242z"/>
	</g>
</g>
<g>
	<defs>
		<rect id="SVGID_8_" x="680.8" y="308" width="210" height="280.1"/>
	</defs>
	<clipPath id="SVGID_9_">
		<use xlink:href="#SVGID_8_"  style="overflow:visible;"/>
	</clipPath>
	<g class="st23">
		<path class="st6" d="M749.8,313.5v42.4l-7.2-4.3v-32.8l-8.6-1.9v-6.6L749,313L749.8,313.5z M786.1,352.6v7.3
			c0,3.2-0.3,5.7-0.9,7.7c-0.6,1.9-1.4,3.3-2.5,4.1c-1.1,0.8-2.4,1.1-3.9,0.9s-3.2-0.8-5-1.9c-1.5-0.9-2.8-1.9-4.1-3.1
			c-1.3-1.2-2.4-2.6-3.4-4.1c-1-1.5-1.9-3.2-2.6-5.1c-0.7-1.9-1.3-3.9-1.6-6.1c-0.4-2.2-0.6-4.6-0.6-7.1V338c0-3.2,0.3-5.7,0.9-7.6
			c0.6-1.9,1.4-3.3,2.5-4.1c1.1-0.8,2.4-1.1,3.9-0.9c1.5,0.2,3.2,0.8,5,1.9c1.5,0.9,2.8,1.9,4.1,3.1c1.3,1.2,2.4,2.5,3.4,4
			c1,1.5,1.9,3.2,2.6,5.1c0.7,1.8,1.3,3.9,1.6,6.1C785.9,347.7,786.1,350.1,786.1,352.6z M778.9,356.8v-9.6c0-1.5-0.1-2.9-0.2-4.1
			c-0.1-1.2-0.3-2.3-0.6-3.3c-0.3-1-0.6-1.9-1-2.6c-0.4-0.8-0.9-1.4-1.4-2c-0.5-0.6-1.1-1-1.8-1.4c-0.8-0.5-1.5-0.7-2.2-0.7
			c-0.6,0-1.1,0.3-1.6,0.8c-0.4,0.5-0.8,1.4-1,2.6c-0.2,1.2-0.3,2.7-0.3,4.6v9.6c0,1.5,0.1,2.9,0.2,4.2c0.1,1.3,0.4,2.4,0.6,3.4
			c0.3,1,0.6,1.9,1,2.6c0.4,0.8,0.9,1.4,1.4,2c0.5,0.6,1.1,1,1.8,1.4c0.8,0.5,1.5,0.7,2.1,0.7c0.6,0,1.2-0.3,1.6-0.9
			c0.4-0.6,0.8-1.5,1-2.7C778.8,360.3,778.9,358.7,778.9,356.8z M790.9,348.4v-2.2c0-1.6,0.3-2.9,0.9-3.9c0.6-1,1.5-1.5,2.6-1.6
			c1.2-0.1,2.6,0.4,4.3,1.4c1.7,1,3.2,2.3,4.4,3.8c1.2,1.5,2.1,3.1,2.6,4.7c0.6,1.7,0.9,3.3,0.9,4.9v2.2c0,1.6-0.3,2.8-0.9,3.8
			c-0.6,1-1.5,1.5-2.6,1.6c-1.2,0.1-2.6-0.4-4.3-1.4c-1.7-1-3.2-2.3-4.4-3.8c-1.2-1.5-2-3.1-2.6-4.7
			C791.2,351.6,790.9,350,790.9,348.4z M795.7,349v2.2c0,0.7,0.1,1.4,0.3,2.1c0.2,0.7,0.6,1.4,1,2.1c0.5,0.7,1.1,1.2,1.7,1.6
			c0.7,0.4,1.3,0.6,1.7,0.5c0.4-0.1,0.8-0.4,1-0.9c0.2-0.5,0.3-1.1,0.3-1.8v-2.2c0-0.7-0.1-1.4-0.4-2.2c-0.2-0.7-0.6-1.4-1-2.1
			c-0.5-0.7-1-1.2-1.7-1.6c-0.7-0.4-1.2-0.5-1.7-0.4c-0.5,0.1-0.8,0.4-1,0.9C795.8,347.7,795.7,348.3,795.7,349z M808.3,382.6v-2.2
			c0-1.6,0.3-2.9,0.9-3.8c0.6-1,1.5-1.5,2.7-1.6c1.2-0.1,2.6,0.4,4.3,1.4c1.7,1,3.2,2.3,4.3,3.8c1.2,1.5,2,3.1,2.6,4.7
			c0.6,1.7,0.9,3.3,0.9,4.9v2.2c0,1.6-0.3,2.9-0.9,3.8c-0.6,1-1.5,1.5-2.6,1.6c-1.2,0.1-2.6-0.4-4.3-1.4c-1.7-1-3.2-2.3-4.4-3.8
			c-1.2-1.5-2.1-3.1-2.7-4.8C808.6,385.8,808.3,384.2,808.3,382.6z M813.1,383.2v2.2c0,0.7,0.1,1.4,0.4,2.2c0.3,0.8,0.6,1.5,1.1,2.1
			c0.5,0.7,1,1.2,1.7,1.5c0.8,0.5,1.4,0.7,1.9,0.6c0.5-0.1,0.8-0.4,0.9-0.9c0.2-0.5,0.3-1.1,0.3-1.8v-2.2c0-0.7-0.1-1.4-0.3-2.2
			c-0.2-0.8-0.6-1.5-1-2.1c-0.5-0.7-1-1.2-1.7-1.6c-0.7-0.4-1.3-0.6-1.7-0.5c-0.5,0.1-0.8,0.4-1,0.9
			C813.2,381.9,813.1,382.5,813.1,383.2z M818,360.2l-17.8,22.5l-3.5-4.2l17.8-22.5L818,360.2z"/>
		<path class="st6" d="M747.4,405.3l4.9,2.9c-0.1,1.8-0.6,3.2-1.4,4.2c-0.8,1-1.9,1.5-3.3,1.4c-1.4,0-3.1-0.6-5-1.8
			c-1.5-0.9-2.9-2-4.1-3.3c-1.2-1.3-2.2-2.8-3.1-4.5c-0.8-1.7-1.5-3.4-1.9-5.3c-0.4-1.9-0.6-3.9-0.6-5.9l0-1.9c0-2,0.3-3.7,0.8-5.1
			c0.5-1.4,1.2-2.4,2.1-3c0.9-0.6,1.9-0.9,3.2-0.8c1.2,0.1,2.6,0.6,4.1,1.5c2,1.2,3.6,2.6,5,4.2c1.4,1.6,2.4,3.4,3.1,5.3
			c0.7,1.9,1.2,3.9,1.3,5.8l-4.9-2.9c0-1.1-0.2-2.2-0.5-3.2c-0.3-1-0.8-1.9-1.5-2.6c-0.6-0.8-1.5-1.5-2.6-2.2
			c-0.8-0.5-1.5-0.7-2.1-0.7c-0.6,0-1.1,0.2-1.6,0.7c-0.4,0.5-0.8,1.2-1,2.2c-0.2,1-0.3,2.2-0.4,3.7l0,2c0,1.4,0,2.7,0.2,3.9
			c0.2,1.2,0.4,2.3,0.8,3.2c0.4,1,0.9,1.8,1.5,2.6c0.6,0.7,1.4,1.4,2.2,1.9c1,0.6,1.9,0.9,2.5,0.9c0.7,0,1.2-0.2,1.5-0.8
			C747.1,407.2,747.3,406.4,747.4,405.3z M765.3,402.1l-6.8,19.1l-5.2-3.1l9.3-22.4l3.3,2L765.3,402.1z M770.3,428.2l-6.1-26.8
			l-0.4-5l3.3,2l8.4,32.9L770.3,428.2z M770.2,417.7l-0.1,4.5l-12.5-7.5l0.1-4.5L770.2,417.7z M790.2,432.7c0-0.5,0-1-0.2-1.4
			c-0.1-0.5-0.3-1-0.7-1.5c-0.3-0.5-0.8-1.2-1.4-1.9c-0.6-0.7-1.4-1.5-2.3-2.4c-1.1-1-2.1-2.1-3-3.2c-0.9-1.1-1.8-2.2-2.5-3.3
			c-0.7-1.1-1.3-2.3-1.7-3.4c-0.4-1.1-0.6-2.3-0.6-3.5c0-1.2,0.3-2.1,0.7-2.7c0.5-0.7,1.1-1.1,1.9-1.3c0.8-0.2,1.7-0.2,2.8,0.1
			c1.1,0.3,2.3,0.8,3.5,1.6c1.8,1,3.3,2.3,4.6,3.8c1.3,1.5,2.3,3.1,3,4.8c0.7,1.7,1,3.4,1,5l-4.9-2.9c0-0.8-0.1-1.6-0.4-2.4
			c-0.3-0.8-0.7-1.5-1.3-2.2c-0.6-0.7-1.3-1.3-2.2-1.8c-0.8-0.5-1.6-0.8-2.1-0.8c-0.6,0-1,0.1-1.3,0.4c-0.3,0.3-0.4,0.8-0.5,1.4
			c0,0.5,0.1,1,0.3,1.4c0.2,0.5,0.5,1,0.9,1.6c0.4,0.6,0.9,1.2,1.5,1.8c0.6,0.6,1.3,1.3,2,2.1c1.3,1.2,2.4,2.4,3.4,3.6
			c1,1.2,1.8,2.3,2.4,3.4c0.7,1.1,1.1,2.2,1.5,3.3c0.3,1.1,0.5,2.2,0.5,3.4c0,1.2-0.2,2.2-0.7,2.9c-0.4,0.7-1,1.2-1.8,1.4
			c-0.8,0.2-1.7,0.2-2.7-0.1c-1.1-0.3-2.2-0.8-3.5-1.6c-1.2-0.7-2.3-1.6-3.5-2.6c-1.1-1-2.2-2.2-3.1-3.5c-0.9-1.3-1.6-2.7-2.2-4.1
			c-0.5-1.5-0.8-3-0.8-4.5l4.9,2.9c0,0.9,0.1,1.7,0.3,2.4c0.2,0.7,0.5,1.4,0.9,2c0.4,0.6,0.9,1.2,1.5,1.7c0.6,0.5,1.2,1,1.9,1.4
			c0.8,0.5,1.5,0.8,2.1,0.8c0.6,0.1,1-0.1,1.2-0.4C790.1,433.8,790.2,433.4,790.2,432.7z M814.5,437.9l-0.1,4.4L802,435l0.1-4.4
			L814.5,437.9z M803.7,420.1l-0.5,27.6l-4.9-2.9l0.5-27.6L803.7,420.1z M818.1,428.7l-0.5,27.6l-4.9-2.9l0.5-27.6L818.1,428.7z
			 M742.2,446.7l-6.1-3.6l0-3.9l5.1,3c0.9,0.5,1.6,0.8,2.2,0.9c0.6,0.1,1-0.1,1.3-0.4c0.3-0.4,0.5-0.9,0.5-1.7
			c0-0.9-0.1-1.6-0.4-2.3c-0.3-0.7-0.7-1.3-1.3-1.9c-0.6-0.6-1.3-1.1-2.2-1.7l-3.4-2l-0.4,23.2l-4.9-2.9l0.5-27.6l8.3,4.9
			c1.4,0.8,2.6,1.7,3.7,2.7c1.1,1,2,2,2.8,3c0.8,1.1,1.3,2.2,1.7,3.4c0.4,1.2,0.6,2.4,0.5,3.7c0,1.1-0.3,2.1-0.7,2.8
			c-0.5,0.7-1.2,1.1-2.1,1.1c-0.9,0-2.2-0.3-3.7-1.2L742.2,446.7z M741.8,458.7l-7.2-4.3l2-3.3l5.3,3.2c0.9,0.5,1.6,0.8,2.1,0.8
			c0.5,0,1-0.2,1.2-0.6c0.3-0.4,0.4-1,0.4-1.7c0-0.8-0.1-1.6-0.3-2.3c-0.2-0.7-0.6-1.4-1.1-2c-0.5-0.6-1.2-1.2-2-1.7l-4.7-2.8
			l0.1-3.9l5.9,3.5l1.1,2.2c1.4,0.8,2.6,1.8,3.5,3c0.9,1.1,1.5,2.3,1.9,3.5c0.4,1.2,0.6,2.4,0.6,3.5c0,1.8-0.4,3.1-1.1,3.9
			c-0.7,0.8-1.7,1.1-3,1C745.2,460.4,743.6,459.7,741.8,458.7z M764,448.8l-6.8,19.1l-5.2-3.1l9.3-22.4l3.3,2L764,448.8z M769,474.9
			l-6.1-26.8l-0.4-5l3.3,2l8.4,32.9L769,474.9z M768.9,464.4l-0.1,4.5l-12.5-7.5l0.1-4.5L768.9,464.4z M790.1,478.1l4.9,2.9
			c-0.1,1.8-0.6,3.2-1.4,4.2c-0.8,1-1.9,1.5-3.3,1.4c-1.4,0-3.1-0.6-5-1.8c-1.5-0.9-2.9-2-4.1-3.3c-1.2-1.3-2.2-2.8-3.1-4.5
			c-0.8-1.7-1.5-3.4-1.9-5.3c-0.4-1.9-0.6-3.9-0.6-5.9l0-1.9c0-2,0.3-3.7,0.8-5.1c0.5-1.4,1.2-2.4,2.1-3c0.9-0.6,1.9-0.9,3.2-0.8
			c1.2,0.1,2.6,0.6,4.1,1.5c2,1.2,3.6,2.6,5,4.2c1.4,1.6,2.4,3.4,3.1,5.3c0.7,1.9,1.2,3.9,1.3,5.8l-4.9-2.9c0-1.1-0.2-2.2-0.5-3.2
			c-0.3-1-0.8-1.9-1.5-2.6c-0.6-0.8-1.5-1.5-2.6-2.2c-0.8-0.5-1.5-0.7-2.1-0.7s-1.1,0.2-1.6,0.7c-0.4,0.5-0.8,1.2-1,2.2
			c-0.2,1-0.3,2.2-0.4,3.7l0,2c0,1.4,0,2.7,0.2,3.9c0.2,1.2,0.4,2.3,0.8,3.2c0.4,1,0.9,1.8,1.5,2.6c0.6,0.7,1.4,1.4,2.2,1.9
			c1,0.6,1.9,0.9,2.5,0.9c0.7,0,1.2-0.2,1.5-0.8C789.8,480,790,479.2,790.1,478.1z M803.4,467.4l-0.5,27.6l-4.9-2.9l0.5-27.6
			L803.4,467.4z M817.6,475.9l-9.6,8l-5.5,3.6l-0.8-5.9l3.8-3.7l6.2-5.6L817.6,475.9z M811.6,500.2l-6.8-16.9l3.7-1.4l8.9,21.8
			L811.6,500.2z"/>
	</g>
</g>
<path class="st24" d="M853.1,728.5c0,0,6.4-32.4-28.4-30.4C824.7,698.2,825.3,733.8,853.1,728.5z"/>
<path class="st24" d="M876.4,740.7c0,0-10.6-21,21.2-27.9C897.7,712.8,901,743.1,876.4,740.7z"/>
<path class="st25" d="M885.2,677c0,0,17,36.6-15.4,42.9C869.8,719.9,847,693.4,885.2,677z"/>
<path class="st26" d="M867.6,757.2h1.1c-0.1-0.8-0.1-1.6-0.2-2.3c-0.5-6.6-0.3-13.3,0.2-19.9c0.6-6.6,1.6-13.2,2.8-19.7
	c0.7-3.3,1.4-6.5,2.2-9.7c0.8-3.2,1.7-6.4,2.7-9.6c-2.4,6.2-4.3,12.7-5.8,19.2c-0.8,3.3-1.4,6.5-1.9,9.8c-0.5,3.3-0.9,6.6-1.2,10
	c-0.3,3.4-0.4,6.7-0.4,10s0.1,6.7,0.4,10.2C867.4,755.9,867.5,756.5,867.6,757.2z"/>
<path class="st26" d="M841.5,711.2l1.6,2.2c0.6,0.7,1,1.5,1.6,2.2c0.5,0.7,1.1,1.5,1.6,2.3l1.5,2.3c0.5,0.8,1,1.5,1.4,2.4l1.3,2.4
	c0.4,0.8,0.9,1.6,1.3,2.4c0.8,1.6,1.6,3.3,2.4,4.9l2.2,5l0.6,1.3l0.5,1.3l1,2.6c1.4,3.4,2.4,6.9,3.6,10.3l0.4,1.3l0.4,1.3l0.8,2.7
	l0.2,0.7h1.5l-1.2-3.7l-0.4-1.4l-0.4-1.3c-1.1-3.5-2.2-7-3.6-10.4l-1-2.6l-0.5-1.3l-0.6-1.3l-2.3-5c-0.8-1.6-1.7-3.3-2.5-4.9
	c-0.4-0.8-0.9-1.6-1.4-2.4l-1.4-2.4c-0.5-0.8-0.9-1.6-1.5-2.3l-1.6-2.3c-0.5-0.8-1.1-1.5-1.6-2.2c-0.6-0.7-1.1-1.5-1.7-2.2l-1.8-2.1
	l-1.9-2c-1.3-1.3-2.7-2.6-4.2-3.6c1.5,1.2,2.7,2.5,3.9,3.9L841.5,711.2z"/>
<path class="st26" d="M872.4,758.8l0.2-1.4l0.3-1.6l0.6-3.2l0.8-3.2c1.1-4.2,2.5-8.3,4.4-12.3c0.9-2,2-3.9,3.1-5.7
	c1.1-1.9,2.4-3.6,4-5.2c-1.7,1.4-3.1,3.1-4.5,4.8c-0.7,0.9-1.3,1.8-1.9,2.7c-0.6,0.9-1.1,1.9-1.6,2.9c-2.1,3.9-3.5,8.1-4.7,12.4
	l-0.8,3.2l-0.7,3.2l-0.3,1.7l-0.3,1.6L872.4,758.8L872.4,758.8z"/>
<path class="st1" d="M751.1,102.3c65.1,24.5,102.5-17.9,151,0.2c17.2,6.4,154.1,46,169.4-19.5c1.6,7.1,1.9,13.9,0.7,19.8
	c-14.2,66.9-152.4,26.8-169.7,20.3c-48.5-18.1-85.9,24.3-151-0.2c-34-12.8-41.7-34-36.7-52.6C718.5,82.6,729.4,94.1,751.1,102.3z"/>
<path class="st2" d="M750.5,36.3c32.8-8.9,0.2-69.2,76-80.6c75.8-11.5,85.2,98.8,146.9,74.5c51.2-20.2,90.4,20.3,98.1,54.7
	c-15.3,65.2-151.9,25.8-169.1,19.4c-48.5-18-85.8,24.2-150.8-0.2c-21.6-8.2-32.5-19.6-36.4-31.7C719.8,55.3,734.8,40.6,750.5,36.3z"
	/>
<g class="st27">
	<path class="st3" d="M283.5,714L241,689.4l42.5-24.6l42.5,24.6L283.5,714z"/>
	<path class="st9" d="M283.5,694.4l-5.4-3.2v-52.3l5.4,3.2V694.4z"/>
	<path class="st9" d="M289,691.2l-5.5,3.2v-52.3l5.5-3.2V691.2z"/>
	<path class="st1" d="M283.5,679.3l-37.6-21.8L283.5,518V679.3z"/>
	<path class="st9" d="M321.2,657.5l-37.7,21.8V518L321.2,657.5z"/>
</g>
<g class="st28">
	<path class="st1" d="M1118.1,803v87l-42.1-24.9L1118.1,803z"/>
	<path class="st9" d="M1118.1,890l41.9-25.2l-41.9-61.8V890z"/>
</g>
<path class="st3" d="M1016.3,782.8c-19.5,11.3-51,11.3-70.4,0c-19.5-11.3-19.5-29.4,0-40.7c19.5-11.3,51-11.3,70.4,0
	C1035.8,753.4,1035.8,771.5,1016.3,782.8z"/>
<linearGradient id="SVGID_10_" gradientUnits="userSpaceOnUse" x1="908.8446" y1="301.8421" x2="1156.0836" y2="367.2451" gradientTransform="matrix(1 0 0 -1 0 925.89)">
	<stop  offset="0" style="stop-color:#E02D7B"/>
	<stop  offset="0.3191" style="stop-color:#E6506F"/>
	<stop  offset="0.7709" style="stop-color:#EE7C5F"/>
	<stop  offset="1" style="stop-color:#F18D59"/>
</linearGradient>
<path class="st29" d="M966.1,582.4c0-2.5,0.3-4.9,0.8-7c-10.7-2.9-18.6,3.8-18.6,17.2c0,15.9,11.2,35.2,25,43.2
	c11.6,6.7,21.3,3.2,24.1-7.5c-2.1-0.6-4.2-1.5-6.4-2.7C977.3,617.6,966.1,598.3,966.1,582.4z"/>
<linearGradient id="SVGID_11_" gradientUnits="userSpaceOnUse" x1="878.6054" y1="264.9536" x2="1222.2804" y2="388.6147" gradientTransform="matrix(1 0 0 -1 0 925.89)">
	<stop  offset="0" style="stop-color:#E02D7B"/>
	<stop  offset="0.3191" style="stop-color:#E6506F"/>
	<stop  offset="0.7709" style="stop-color:#EE7C5F"/>
	<stop  offset="1" style="stop-color:#F18D59"/>
</linearGradient>
<path class="st30" d="M991,539c-12.2-7.1-23.4-7.7-31.9-3.1H959c-0.7,0.4-1.5,0.9-2.2,1.4l-11.6,7.1c8-2.6,17.7-1.3,28.2,4.8
	c26.7,15.4,48.4,55.4,48.4,89.3s-48.4,84.7-48.4,84.7L991,713c0,0,48.4-50.8,48.4-84.7C1039.5,594.5,1017.8,554.5,991,539z"/>
<linearGradient id="SVGID_12_" gradientUnits="userSpaceOnUse" x1="824.44" y1="238.5258" x2="1034.824" y2="322.0368" gradientTransform="matrix(1 0 0 -1 0 925.89)">
	<stop  offset="0" style="stop-color:#E02D7B"/>
	<stop  offset="0.3191" style="stop-color:#E6506F"/>
	<stop  offset="0.7709" style="stop-color:#EE7C5F"/>
	<stop  offset="1" style="stop-color:#F18D59"/>
</linearGradient>
<path class="st31" d="M925,582.7c0,33.9,48.4,140.6,48.4,140.6s48.4-50.8,48.4-84.7c0-33.9-21.7-73.9-48.4-89.4
	c-10.5-6.1-20.2-7.4-28.2-4.8C933,548.5,925,562.1,925,582.7z M973.4,635.8c-13.8-8-24.9-27.3-24.9-43.2c0-13.3,7.9-20,18.6-17.2
	c2.1,0.6,4.2,1.5,6.4,2.7c13.8,8,25,27.3,25,43.2c0,2.5-0.3,4.9-0.8,7C994.6,639,985,642.4,973.4,635.8z"/>
<g>
	<defs>
		<polygon id="SVGID_13_" points="293,166 574.5,203.1 577,512 295.5,474.9 		"/>
	</defs>
	<clipPath id="SVGID_14_">
		<use xlink:href="#SVGID_13_"  style="overflow:visible;"/>
	</clipPath>
	<g class="st32">

			<linearGradient id="SVGID_15_" gradientUnits="userSpaceOnUse" x1="316.3609" y1="588.2045" x2="575.5696" y2="590.3314" gradientTransform="matrix(1 0 0 -1 0 925.89)">
			<stop  offset="0" style="stop-color:#E02D7B"/>
			<stop  offset="0.2101" style="stop-color:#E02F78"/>
			<stop  offset="0.3901" style="stop-color:#E2376D"/>
			<stop  offset="0.5589" style="stop-color:#E5435B"/>
			<stop  offset="0.7211" style="stop-color:#E85443"/>
			<stop  offset="0.877" style="stop-color:#ED6A23"/>
			<stop  offset="1" style="stop-color:#F17F04"/>
		</linearGradient>
		<path class="st33" d="M320,256c6.6-26.9,20.5-47,39.1-59.4l-3-1.2l19-7.1c0.8-0.3,1.6-0.6,2.4-0.9l0.4-0.2
			c28.9-10.1,64.6-5.3,100.1,16.9c69.5,43.6,111.6,137.5,93.9,209.7c-7.9,32.2-26.3,54.6-50.4,65.8l0,0l-0.2,0
			c-3.4,1.6-7,3-10.6,4.1l-19.6,7.5l0-3.8c-23.9,1.9-50.7-5-77.2-21.7C344.4,422.1,302.3,328.2,320,256z"/>

			<linearGradient id="SVGID_16_" gradientUnits="userSpaceOnUse" x1="531.6509" y1="633.8002" x2="309.4169" y2="528.4731" gradientTransform="matrix(1 0 0 -1 0 925.89)">
			<stop  offset="0" style="stop-color:#E02D7B"/>
			<stop  offset="0.2101" style="stop-color:#E02F78"/>
			<stop  offset="0.3901" style="stop-color:#E2376D"/>
			<stop  offset="0.5589" style="stop-color:#E5435B"/>
			<stop  offset="0.7211" style="stop-color:#E85443"/>
			<stop  offset="0.877" style="stop-color:#ED6A23"/>
			<stop  offset="1" style="stop-color:#F17F04"/>
		</linearGradient>
		<path class="st34" d="M298.1,264.2c-17.7,72.2,24.3,166.1,93.9,209.7c69.5,43.6,140.3,20.3,158-51.9
			c17.7-72.2-24.3-166.1-93.9-209.7C386.6,168.7,315.8,191.9,298.1,264.2z"/>

			<linearGradient id="SVGID_17_" gradientUnits="userSpaceOnUse" x1="346.0869" y1="515.5732" x2="498.7151" y2="650.5362" gradientTransform="matrix(1 0 0 -1 0 925.89)">
			<stop  offset="0" style="stop-color:#7AA9F2"/>
			<stop  offset="0.203" style="stop-color:#90BBF6"/>
			<stop  offset="0.5201" style="stop-color:#ACD3FB"/>
			<stop  offset="0.7966" style="stop-color:#BEE2FE"/>
			<stop  offset="1" style="stop-color:#C4E7FF"/>
		</linearGradient>
		<path class="st35" d="M314,275c-15.2,62.1,21,142.9,80.8,180.4c59.8,37.5,120.7,17.5,135.9-44.7c15.2-62.1-21-142.9-80.8-180.4
			C390.1,192.8,329.3,212.8,314,275z"/>

			<linearGradient id="SVGID_18_" gradientUnits="userSpaceOnUse" x1="346.0869" y1="515.5732" x2="498.7151" y2="650.5362" gradientTransform="matrix(1 0 0 -1 0 925.89)">
			<stop  offset="1.385220e-07" style="stop-color:#B8B8B8"/>
			<stop  offset="0.1741" style="stop-color:#CACACA"/>
			<stop  offset="0.5027" style="stop-color:#E6E6E6"/>
			<stop  offset="0.7892" style="stop-color:#F8F8F8"/>
			<stop  offset="1" style="stop-color:#FEFEFE"/>
		</linearGradient>
		<path class="st36" d="M314,275c-15.2,62.1,21,142.9,80.8,180.4c59.8,37.5,120.7,17.5,135.9-44.7c15.2-62.1-21-142.9-80.8-180.4
			C390.1,192.8,329.3,212.8,314,275z"/>
		<path class="st37" d="M486,261c-13.5-17.5-44-38.5-65-44.5L415,337L486,261z"/>
		<path class="st38" d="M406.5,451.5c-59.8-37.5-96-118.3-80.8-180.4c7-28.4,23.5-48,45.1-57.3c-27.2,6.7-48.5,27.9-56.7,61.2
			c-15.2,62.1,21,142.9,80.8,180.4c32.5,20.4,65.2,23.7,90.9,12.7C462.1,473.8,434.2,468.8,406.5,451.5z"/>

			<linearGradient id="SVGID_19_" gradientUnits="userSpaceOnUse" x1="471.6849" y1="620.0803" x2="403.9104" y2="610.9054" gradientTransform="matrix(1 0 0 -1 0 925.89)">
			<stop  offset="1.331950e-07" style="stop-color:#231F20"/>
			<stop  offset="0.3981" style="stop-color:#2C292A"/>
			<stop  offset="1" style="stop-color:#404041"/>
		</linearGradient>

			<linearGradient id="SVGID_20_" gradientUnits="userSpaceOnUse" x1="407.8345" y1="617.3314" x2="467.5465" y2="613.8637" gradientTransform="matrix(1 0 0 -1 0 925.89)">
			<stop  offset="1.331950e-07" style="stop-color:#231F20"/>
			<stop  offset="0.3981" style="stop-color:#2C292A"/>
			<stop  offset="1" style="stop-color:#404041"/>
		</linearGradient>
		<path class="st39" d="M465.6,277.2L408,340.9c-0.6,0.7-0.5,1.9,0.3,2.7c0.8,0.7,1.9,0.8,2.6,0.1l56.4-64.8
			c0.6-0.7,0.8-1.6,0.2-2.2C466.8,276.1,465.9,276.9,465.6,277.2z"/>

			<linearGradient id="SVGID_21_" gradientUnits="userSpaceOnUse" x1="403.349" y1="635.703" x2="434.4492" y2="600.1939" gradientTransform="matrix(1 0 0 -1 0 925.89)">
			<stop  offset="1.331950e-07" style="stop-color:#231F20"/>
			<stop  offset="0.3981" style="stop-color:#2C292A"/>
			<stop  offset="1" style="stop-color:#404041"/>
		</linearGradient>

			<linearGradient id="SVGID_22_" gradientUnits="userSpaceOnUse" x1="414.0714" y1="618.1044" x2="423.0804" y2="618.1404" gradientTransform="matrix(1 0 0 -1 0 925.89)">
			<stop  offset="1.331950e-07" style="stop-color:#231F20"/>
			<stop  offset="0.3981" style="stop-color:#2C292A"/>
			<stop  offset="1" style="stop-color:#404041"/>
		</linearGradient>
		<path class="st40" d="M419.7,276.7l-4.1,61.7c-0.1,0.8,0.6,1.7,1.5,1.9c0.8,0.2,1.6-0.4,1.6-1.2l2.9-61.9c0.1-0.8-0.2-1.6-0.9-1.8
			C419.9,275.2,419.8,276.3,419.7,276.7z"/>

			<linearGradient id="SVGID_23_" gradientUnits="userSpaceOnUse" x1="326.8593" y1="582.6438" x2="526.1887" y2="584.2791" gradientTransform="matrix(1 0 0 -1 0 925.89)">
			<stop  offset="0" style="stop-color:#992053"/>
			<stop  offset="0.1783" style="stop-color:#B02753"/>
			<stop  offset="0.5439" style="stop-color:#DB3354"/>
			<stop  offset="0.8302" style="stop-color:#F53A54"/>
			<stop  offset="1" style="stop-color:#FF3D54"/>
		</linearGradient>
		<path class="st41" d="M422.2,236.5l-0.1-6.8c0-2.1,1.4-3.2,3.2-2.6c1.8,0.6,3.3,2.9,3.3,4.9l0.1,6.8c0,2.1-1.4,3.2-3.2,2.6
			C423.7,240.8,422.2,238.5,422.2,236.5z M427.7,457.8c1.8,0.6,3.3-0.5,3.2-2.6l-0.1-6.8c0-2.1-1.5-4.3-3.3-4.9
			c-1.8-0.6-3.3,0.5-3.2,2.6l0.1,6.8C424.4,454.9,425.8,457.1,427.7,457.8z M469.4,270.8c1.6,1.6,3.6,1.7,4.4,0.2l2.9-4.8
			c0.9-1.5,0.3-4-1.3-5.6c-1.6-1.6-3.6-1.7-4.4-0.2l-2.9,4.8C467.3,266.7,467.9,269.2,469.4,270.8z M377.5,424.2
			c1.6,1.6,3.6,1.7,4.4,0.2l2.9-4.8c0.9-1.5,0.3-4-1.3-5.6c-1.6-1.6-3.6-1.7-4.4-0.2l-2.9,4.8C375.4,420.1,376,422.6,377.5,424.2z
			 M501.8,319.3c0.9,2.1,2.9,3.5,4.5,3l5-1.5c1.5-0.5,2.1-2.6,1.1-4.7c-0.9-2.1-2.9-3.5-4.5-3l-5.1,1.5
			C501.4,315.1,500.9,317.2,501.8,319.3z M340.5,368.8c0.9,2.1,2.9,3.5,4.5,3l5-1.5c1.5-0.5,2.1-2.6,1.1-4.7s-2.9-3.5-4.5-3l-5,1.5
			C340.1,364.5,339.6,366.6,340.5,368.8z M514.1,374.1c0,2.1,1.5,4.3,3.3,4.9l5.9,2.1c1.8,0.6,3.3-0.5,3.2-2.6
			c0-2.1-1.5-4.3-3.3-4.9l-5.9-2.1C515.5,370.9,514.1,372,514.1,374.1z M326.6,306.3c0,2.1,1.5,4.3,3.3,4.9l5.9,2.1
			c1.8,0.6,3.3-0.5,3.2-2.6c0-2.1-1.5-4.3-3.3-4.9l-5.9-2.1C328,303,326.5,304.2,326.6,306.3z M502.8,420.4c-0.9,1.5-0.3,4,1.3,5.6
			l5.1,5.2c1.6,1.6,3.6,1.7,4.4,0.2c0.9-1.5,0.3-4-1.3-5.6l-5.1-5.2C505.7,419,503.7,418.9,502.8,420.4z M339.4,253.5
			c-0.9,1.5-0.3,4,1.3,5.6l5.1,5.2c1.6,1.6,3.6,1.7,4.4,0.2c0.9-1.5,0.3-4-1.3-5.6l-5.1-5.2C342.3,252.1,340.3,252,339.4,253.5z
			 M471.1,445.7c-1.5,0.5-2.1,2.6-1.1,4.7l3,6.9c0.9,2.1,2.9,3.5,4.5,3c1.5-0.5,2.1-2.6,1.1-4.7l-3-6.9
			C474.7,446.6,472.7,445.3,471.1,445.7z M375.6,224.5c-1.5,0.5-2.1,2.6-1.1,4.7l3,6.9c0.9,2.1,2.9,3.5,4.5,3
			c1.5-0.5,2.1-2.6,1.1-4.7l-3-6.9C379.1,225.3,377.1,224,375.6,224.5z"/>

			<linearGradient id="SVGID_24_" gradientUnits="userSpaceOnUse" x1="354.1932" y1="527.4041" x2="519.8802" y2="673.9151" gradientTransform="matrix(1 0 0 -1 0 925.89)">
			<stop  offset="0" style="stop-color:#FFFFFF"/>
			<stop  offset="4.540000e-02" style="stop-color:#FFFFFF;stop-opacity:0.9546"/>
			<stop  offset="1" style="stop-color:#FFFFFF;stop-opacity:0"/>
		</linearGradient>
		<path class="st42" d="M449.9,230.3c-50-31.3-100.7-22.5-124.9,17.5c9.3,60,54.2,122.8,118.2,157.5c27.6,14.9,55.3,22.7,81,24
			c2.6-5.7,4.8-11.9,6.5-18.6C545.9,348.6,509.8,267.8,449.9,230.3z"/>
	</g>
</g>
</svg>
