<svg width="17" height="13" viewBox="0 0 17 13" fill="none" xmlns="http://www.w3.org/2000/svg">
<g clip-path="url(#clip0_2108_5)">
<path fill-rule="evenodd" clip-rule="evenodd" d="M10.7352 9.20169C10.4229 8.80372 9.91575 8.22708 9.4816 8.17244C9.21747 8.13922 8.91393 8.36072 8.61477 8.56967C8.5564 8.5992 8.10547 8.87091 8.05075 8.88716C7.76181 8.97059 7.14525 8.99496 6.77239 8.65089C6.4134 8.31863 5.84573 7.7036 5.38751 7.14024C4.94971 6.5599 4.49076 5.86217 4.25581 5.43393C4.01065 4.99019 4.18722 4.40321 4.33899 4.14479C4.36672 4.09827 4.70236 3.74904 4.77752 3.66782L4.78846 3.68111C5.06646 3.44484 5.35759 3.20488 5.39043 2.94498C5.44442 2.51231 5.00736 1.88251 4.69506 1.4838C4.38277 1.08436 3.89901 0.385149 3.24013 0.484087C2.99205 0.521004 2.77826 0.608867 2.56739 0.735124L2.56155 0.728478L2.52653 0.755797L2.50829 0.765396L2.51048 0.768349C2.38935 0.862857 2.0435 1.12423 2.00409 1.15967C1.57652 1.54435 0.93296 2.45029 1.43058 4.07981C1.79979 5.29069 2.58709 6.71274 3.65968 8.15103L3.65385 8.1562C3.70638 8.2256 3.76038 8.28836 3.8151 8.35555C3.86618 8.42422 3.91652 8.49214 3.96906 8.56007L3.97635 8.5549C5.11462 9.94225 6.30833 11.0512 7.39771 11.7054C8.86432 12.5855 9.90699 12.189 10.3886 11.8738C10.4338 11.8435 10.7782 11.5725 10.8949 11.4832L10.8979 11.4861C10.9022 11.4817 10.9052 11.4758 10.911 11.4714C10.9215 11.4633 10.932 11.4552 10.9424 11.447L10.938 11.4411C11.1146 11.2683 11.2561 11.0837 11.3539 10.8511C11.61 10.2391 11.0474 9.60113 10.7352 9.20169Z" fill="#EB242A"/>
</g>
<path d="M8.7666 4.60722C8.76661 4.4993 8.8056 4.39503 8.87637 4.31369C8.94715 4.23235 9.04491 4.17945 9.15159 4.16478L9.21219 4.16061L14.3337 4.1612L12.5692 2.39499C12.4935 2.31941 12.4474 2.21907 12.4394 2.11228C12.4313 2.00549 12.4618 1.89934 12.5253 1.81319L12.568 1.76317C12.6435 1.68738 12.7437 1.64129 12.8502 1.63331C12.9567 1.62533 13.0626 1.65599 13.1485 1.7197L13.1984 1.76258L15.7234 4.28923L15.7608 4.33092L15.7959 4.3857L15.8083 4.40714L15.8309 4.46133L15.8487 4.53279L15.8535 4.57447L15.8547 4.6102C15.8546 4.64023 15.8514 4.67016 15.8452 4.69952L15.8315 4.74835C15.8132 4.80473 15.7837 4.85679 15.7448 4.90139L13.199 7.45604C13.1196 7.53616 13.0128 7.58315 12.9003 7.58755C12.7877 7.59196 12.6776 7.55345 12.5922 7.47978C12.5068 7.40611 12.4524 7.30275 12.44 7.19051C12.4276 7.07827 12.458 6.96548 12.5253 6.87484L12.5686 6.82482L14.3314 5.05444L9.21219 5.05444C9.09401 5.05444 8.98067 5.00738 8.89711 4.92362C8.81355 4.83987 8.7666 4.72567 8.7666 4.60722Z" fill="#EB242A" stroke="#EB242A" stroke-width="0.443005"/>
<defs>
<clipPath id="clip0_2108_5">
<rect width="12.4041" height="11.8135" fill="white" transform="translate(0.497559 0.450684)"/>
</clipPath>
</defs>
</svg>
