<?xml version="1.0" encoding="utf-8"?>
<!-- Generator: Adobe Illustrator 23.1.0, SVG Export Plug-In . SVG Version: 6.00 Build 0)  -->
<svg version="1.1" id="Слой_1" xmlns="http://www.w3.org/2000/svg" xmlns:xlink="http://www.w3.org/1999/xlink" x="0px" y="0px"
	 viewBox="0 0 155 29" style="enable-background:new 0 0 155 29;" xml:space="preserve">
<style type="text/css">
	.st0{fill:#EB242A;}
</style>
<path class="st0" d="M0.5,5.4c2,0.9,8.7,3.7,10.9,4.2c1.5,0.3,4.6,0.3,6.1,0c2.3-0.4,9-3.4,10.7-4.2c0,0,0,0,0,0c0,0,0,0,0.1,0
	C27.3,5.1,24.5,4,17,1c-1.9-0.7-3.6-0.9-5.7,0C4.1,3.9,1.4,5,0.5,5.4C0.4,5.4,0.4,5.4,0.5,5.4C0.5,5.4,0.5,5.4,0.5,5.4z"/>
<path class="st0" d="M14,28.1c0-1.9-0.2-9.8-0.8-12.1c-0.3-1.3-1.8-3.8-2.8-4.7C8.8,9.7,1.9,6.6,0.1,5.8c0,0-0.1,0-0.1,0
	c0.2,1.2,0.3,2,2,10.4c0.8,3.7,0.8,4.1,2.8,5.5c6.4,4.6,8.5,6.1,9.2,6.6C14,28.2,14,28.2,14,28.1C14,28.2,14,28.1,14,28.1z"/>
<path class="st0" d="M28.4,6C28.4,6,28.4,6,28.4,6c-1.7,0.8-8.1,3.8-9.8,5.2c-1.1,0.9-2.7,3.5-3.2,4.9c-0.8,2.3-0.8,10.2-0.8,12.1
	c0,0,0,0,0,0c0,0,0,0.1,0,0.1c1-0.7,4.3-3.1,9.3-6.9c1.7-1.3,1.9-2.1,2.4-4.6c1-4.6,2-9.5,2.3-10.9C28.5,6,28.4,6,28.4,6z"/>
<path class="st0" d="M44.7,10.2h2.5c0.2,0,0.3,0.1,0.3,0.3v10.6c0,0.2-0.1,0.3-0.3,0.3H45c-0.1,0-0.2,0-0.2-0.1l-4.2-5.4
	c-0.2-0.2-0.5-0.1-0.5,0.2v5.1c0,0.2-0.1,0.3-0.3,0.3h-2.5c-0.2,0-0.3-0.1-0.3-0.3V10.5c0-0.2,0.1-0.3,0.3-0.3h2.2
	c0.1,0,0.2,0,0.2,0.1l4.2,5.4c0.2,0.2,0.5,0.1,0.5-0.2v-5.1C44.4,10.3,44.6,10.2,44.7,10.2z"/>
<path class="st0" d="M60,11.6c1.2,1.2,1.8,2.6,1.8,4.2c0,1.6-0.6,3-1.8,4.2c-1.2,1.2-2.7,1.7-4.4,1.7c-1.7,0-3.2-0.6-4.4-1.7
	c-1.2-1.2-1.8-2.6-1.8-4.2c0-1.6,0.6-3,1.8-4.2c1.2-1.2,2.7-1.7,4.4-1.7C57.4,9.9,58.8,10.5,60,11.6z M53.4,13.5
	c-0.6,0.6-0.9,1.4-0.9,2.3c0,0.9,0.3,1.7,0.9,2.3c0.6,0.6,1.3,0.9,2.2,0.9c0.9,0,1.6-0.3,2.2-0.9c0.6-0.6,0.9-1.4,0.9-2.3
	c0-0.9-0.3-1.7-0.9-2.3c-0.6-0.6-1.3-0.9-2.2-0.9C54.7,12.6,54,12.9,53.4,13.5z"/>
<path class="st0" d="M65.9,21.2l-3.8-10.6c-0.1-0.2,0.1-0.4,0.3-0.4h2.7c0.1,0,0.2,0.1,0.3,0.2l2.1,6.6c0.1,0.3,0.5,0.3,0.5,0
	l2.1-6.6c0-0.1,0.1-0.2,0.3-0.2h2.7c0.2,0,0.3,0.2,0.3,0.4l-3.8,10.6c0,0.1-0.1,0.2-0.3,0.2h-3C66.1,21.4,66,21.3,65.9,21.2z"/>
<path class="st0" d="M79.8,19h-3.3c-0.1,0-0.2,0.1-0.3,0.2l-0.7,2c0,0.1-0.1,0.2-0.3,0.2h-2.7c-0.2,0-0.3-0.2-0.3-0.4l4-10.6
	c0-0.1,0.2-0.2,0.3-0.2h3c0.1,0,0.2,0.1,0.3,0.2l4,10.6c0.1,0.2-0.1,0.4-0.3,0.4H81c-0.1,0-0.2-0.1-0.3-0.2l-0.7-2
	C80,19.1,79.9,19,79.8,19z M78.8,16.6c0.2,0,0.3-0.2,0.3-0.4l-0.9-2.9l-0.9,2.9c-0.1,0.2,0.1,0.4,0.3,0.4L78.8,16.6L78.8,16.6z"/>
<path class="st0" d="M90.9,21.4h-5.1c-0.2,0-0.3-0.1-0.3-0.3V10.5c0-0.2,0.1-0.3,0.3-0.3h4.7c1.1,0,2.1,0.3,2.8,0.9
	c0.7,0.6,1.1,1.3,1.1,2.1c0,0.3-0.1,0.6-0.1,0.9c-0.1,0.3-0.2,0.5-0.4,0.7c-0.1,0.2-0.3,0.3-0.4,0.4c-0.1,0.1-0.3,0.2-0.4,0.3
	L93,15.5c0.1,0,0.1,0.1,0.2,0.1c0.1,0,0.3,0.1,0.5,0.3c0.2,0.1,0.4,0.3,0.6,0.5c0.2,0.2,0.3,0.4,0.5,0.7c0.1,0.3,0.2,0.7,0.2,1
	c0,0.9-0.4,1.6-1.1,2.3C93.1,21.1,92.1,21.4,90.9,21.4z M88.6,18.7c0,0.2,0.1,0.3,0.3,0.3h1.8c0.4,0,0.6-0.1,0.9-0.3
	c0.2-0.2,0.3-0.5,0.3-0.8c0-0.3-0.1-0.6-0.3-0.8c-0.2-0.2-0.5-0.3-0.9-0.3h-1.8c-0.2,0-0.3,0.1-0.3,0.3V18.7z M90.3,12.6h-1.4
	c-0.2,0-0.3,0.1-0.3,0.3v1.3c0,0.2,0.1,0.3,0.3,0.3h1.4c0.3,0,0.6-0.1,0.8-0.3c0.2-0.2,0.3-0.4,0.3-0.7c0-0.3-0.1-0.5-0.3-0.7
	C90.9,12.7,90.6,12.6,90.3,12.6z"/>
<path class="st0" d="M96.9,21.1V10.5c0-0.2,0.1-0.3,0.3-0.3h5c1.2,0,2.2,0.4,2.9,1.1c0.8,0.7,1.1,1.6,1.1,2.7c0,0.4-0.1,0.9-0.2,1.3
	c-0.1,0.4-0.3,0.7-0.5,0.9c-0.2,0.2-0.4,0.4-0.6,0.6c-0.2,0.2-0.3,0.3-0.5,0.3l-0.2,0.1l2.1,3.6c0.1,0.2,0,0.4-0.3,0.4h-2.5
	c-0.1,0-0.2-0.1-0.3-0.2l-1.8-3.2c-0.1-0.1-0.1-0.1-0.3-0.1h-1.1c-0.2,0-0.3,0.1-0.3,0.3v2.9c0,0.2-0.1,0.3-0.3,0.3h-2.5
	C97.1,21.4,96.9,21.3,96.9,21.1z M102.9,14.8c0.2-0.2,0.3-0.5,0.3-0.8c0-0.3-0.1-0.6-0.3-0.8c-0.2-0.2-0.5-0.3-0.9-0.3h-1.8
	c-0.2,0-0.3,0.1-0.3,0.3v1.7c0,0.2,0.1,0.3,0.3,0.3h1.8C102.4,15.2,102.7,15.1,102.9,14.8z"/>
<path class="st0" d="M118.6,11.6c1.2,1.2,1.8,2.6,1.8,4.2c0,1.6-0.6,3-1.8,4.2c-1.2,1.2-2.7,1.7-4.4,1.7s-3.2-0.6-4.4-1.7
	c-1.2-1.2-1.8-2.6-1.8-4.2c0-1.6,0.6-3,1.8-4.2c1.2-1.2,2.7-1.7,4.4-1.7C115.9,9.9,117.4,10.5,118.6,11.6z M112,13.5
	c-0.6,0.6-0.9,1.4-0.9,2.3c0,0.9,0.3,1.7,0.9,2.3s1.3,0.9,2.2,0.9c0.9,0,1.6-0.3,2.2-0.9c0.6-0.6,0.9-1.4,0.9-2.3
	c0-0.9-0.3-1.7-0.9-2.3c-0.6-0.6-1.3-0.9-2.2-0.9C113.3,12.6,112.6,12.9,112,13.5z"/>
<path class="st0" d="M126.3,17.4l-0.9,1c0,0.1-0.1,0.1-0.1,0.2v2.5c0,0.2-0.1,0.3-0.3,0.3h-2.5c-0.2,0-0.3-0.1-0.3-0.3V10.5
	c0-0.2,0.1-0.3,0.3-0.3h2.5c0.2,0,0.3,0.1,0.3,0.3v3.2c0,0.3,0.3,0.4,0.5,0.2l3.1-3.6c0.1-0.1,0.1-0.1,0.2-0.1h2.8
	c0.2,0,0.4,0.3,0.2,0.5l-3.4,4c-0.1,0.1-0.1,0.2,0,0.3l3.9,5.9c0.1,0.2,0,0.4-0.2,0.4h-2.8c-0.1,0-0.2,0-0.2-0.1l-2.5-3.8
	C126.7,17.3,126.5,17.3,126.3,17.4z"/>
<path class="st0" d="M138.1,18.8h5.2c0.2,0,0.3,0.1,0.3,0.3v2c0,0.2-0.1,0.3-0.3,0.3h-8.2c-0.2,0-0.3-0.1-0.3-0.3V10.5
	c0-0.2,0.1-0.3,0.3-0.3h8.1c0.2,0,0.3,0.1,0.3,0.3v2c0,0.2-0.1,0.3-0.3,0.3h-5c-0.2,0-0.3,0.1-0.3,0.3v1.2c0,0.2,0.1,0.3,0.3,0.3
	h3.7c0.2,0,0.3,0.1,0.3,0.3v1.8c0,0.2-0.1,0.3-0.3,0.3h-3.7c-0.2,0-0.3,0.1-0.3,0.3v1.3C137.8,18.7,137.9,18.8,138.1,18.8z"/>
<path class="st0" d="M145.5,21.1V10.5c0-0.2,0.1-0.3,0.3-0.3h5c1.2,0,2.2,0.4,2.9,1.1s1.2,1.6,1.2,2.7c0,0.4-0.1,0.9-0.2,1.3
	c-0.1,0.4-0.3,0.7-0.5,0.9c-0.2,0.2-0.4,0.4-0.6,0.6c-0.2,0.2-0.3,0.3-0.5,0.3l-0.2,0.1L155,21c0.1,0.2,0,0.4-0.3,0.4h-2.5
	c-0.1,0-0.2-0.1-0.3-0.2l-1.8-3.2c-0.1-0.1-0.1-0.1-0.3-0.1h-1.1c-0.2,0-0.3,0.1-0.3,0.3v2.9c0,0.2-0.1,0.3-0.3,0.3h-2.5
	C145.6,21.4,145.5,21.3,145.5,21.1z M151.4,14.8c0.2-0.2,0.3-0.5,0.3-0.8c0-0.3-0.1-0.6-0.3-0.8c-0.2-0.2-0.5-0.3-0.9-0.3h-1.8
	c-0.2,0-0.3,0.1-0.3,0.3v1.7c0,0.2,0.1,0.3,0.3,0.3h1.8C150.9,15.2,151.2,15.1,151.4,14.8z"/>
</svg>
