<?xml version="1.0" standalone="no"?>
<!DOCTYPE svg PUBLIC "-//W3C//DTD SVG 20010904//EN"
 "http://www.w3.org/TR/2001/REC-SVG-20010904/DTD/svg10.dtd">
<svg version="1.0" xmlns="http://www.w3.org/2000/svg"
 width="260.000000pt" height="260.000000pt" viewBox="0 0 260.000000 260.000000"
 preserveAspectRatio="xMidYMid meet">

<g transform="translate(0.000000,260.000000) scale(0.100000,-0.100000)"
fill="#000000" stroke="none">
<path d="M0 1300 l0 -1300 1300 0 1300 0 0 1300 0 1300 -1300 0 -1300 0 0
-1300z m1505 1001 c207 -43 367 -130 520 -286 200 -201 295 -433 295 -715 0
-282 -95 -514 -295 -715 -203 -206 -439 -305 -725 -305 -286 0 -522 99 -725
305 -200 201 -295 433 -295 715 0 282 95 514 295 715 152 154 311 242 515 286
116 24 297 24 415 0z"/>
<path d="M1170 1884 c-265 -57 -470 -311 -470 -584 0 -323 277 -600 600 -600
275 0 528 206 585 475 43 204 -16 398 -165 546 -150 149 -346 207 -550 163z"/>
</g>
</svg>
